<svg xmlns="http://www.w3.org/2000/svg" viewBox="0 0 440 408" width="440" height="408">
<title>Chile Tech Week 2026</title>
<rect width="440" height="408" fill="#000"/>
<path fill="#fff" d="M97.0 74.8L120.4 74.8Q119.2 84.8 113.5 92.4Q107.7 100.0 98.3 104.2Q88.8 108.4 76.6 108.4L76.6 108.4Q63.4 108.4 53.5 103.5Q43.6 98.6 38.1 89.8Q32.6 81.0 32.6 69.2L32.6 69.2Q32.6 57.4 38.1 48.6Q43.6 39.8 53.5 34.9Q63.4 30.0 76.6 30.0L76.6 30.0Q88.8 30.0 98.3 34.2Q107.7 38.4 113.5 46.0Q119.2 53.5 120.4 63.6L120.4 63.6L97.0 63.6Q96.0 59.3 93.3 56.3Q90.7 53.2 86.5 51.5Q82.3 49.9 76.6 49.9L76.6 49.9Q70.2 49.9 65.6 52.2Q61.0 54.5 58.5 58.9Q56.0 63.2 56.0 69.2L56.0 69.2Q56.0 75.2 58.5 79.5Q61.0 83.8 65.6 86.2Q70.2 88.5 76.6 88.5L76.6 88.5Q82.3 88.5 86.5 87.0Q90.7 85.4 93.3 82.3Q96.0 79.2 97.0 74.8L97.0 74.8ZM130.5 106.7L130.5 31.7L153.8 31.7L153.8 106.7L130.5 106.7ZM188.9 106.7L188.9 31.7L212.2 31.7L212.2 106.7L188.9 106.7ZM143.6 78.8L143.6 58.2L198.3 58.2L198.3 78.8L143.6 78.8ZM226.0 106.7L226.0 31.7L249.3 31.7L249.3 106.7L226.0 106.7ZM262.9 31.7L286.2 31.7L286.2 96.4L275.7 86.0L331.6 86.0L331.6 106.7L262.9 106.7L262.9 31.7ZM350.6 61.0L406.3 61.0L406.3 77.4L350.6 77.4L350.6 61.0ZM361.8 40.2L366.5 69.2L361.8 98.2L352.7 88.1L409.8 88.1L409.8 106.7L338.7 106.7L344.3 69.2L338.7 31.7L409.3 31.7L409.3 50.3L352.7 50.3L361.8 40.2ZM58.9 196.7L58.9 131.8L82.2 131.8L82.2 196.7L58.9 196.7ZM31.1 142.4L31.1 121.7L110.0 121.7L110.0 142.4L31.1 142.4ZM139.5 151.0L195.2 151.0L195.2 167.4L139.5 167.4L139.5 151.0ZM150.7 130.2L155.4 159.2L150.7 188.2L141.6 178.1L198.7 178.1L198.7 196.7L127.6 196.7L133.2 159.2L127.6 121.7L198.2 121.7L198.2 140.3L141.6 140.3L150.7 130.2ZM282.6 164.8L306.0 164.8Q304.8 174.8 299.1 182.4Q293.3 190.0 283.9 194.2Q274.4 198.4 262.2 198.4L262.2 198.4Q249.0 198.4 239.1 193.5Q229.2 188.6 223.7 179.8Q218.2 171.0 218.2 159.2L218.2 159.2Q218.2 147.4 223.7 138.6Q229.2 129.8 239.1 124.9Q249.0 120.0 262.2 120.0L262.2 120.0Q274.4 120.0 283.9 124.2Q293.3 128.4 299.1 135.9Q304.8 143.5 306.0 153.6L306.0 153.6L282.6 153.6Q281.6 149.3 279.0 146.3Q276.3 143.2 272.1 141.5Q267.9 139.9 262.2 139.9L262.2 139.9Q255.8 139.9 251.2 142.2Q246.6 144.5 244.1 148.8Q241.6 153.2 241.6 159.2L241.6 159.2Q241.6 165.2 244.1 169.5Q246.6 173.8 251.2 176.1Q255.8 178.5 262.2 178.5L262.2 178.5Q267.9 178.5 272.1 176.9Q276.3 175.4 279.0 172.3Q281.6 169.2 282.6 164.8L282.6 164.8ZM326.6 196.7L326.6 121.7L349.9 121.7L349.9 196.7L326.6 196.7ZM385.0 196.7L385.0 121.7L408.3 121.7L408.3 196.7L385.0 196.7ZM339.7 168.8L339.7 148.2L394.4 148.2L394.4 168.8L339.7 168.8ZM110.1 211.7L130.9 276.6L123.9 276.7L141.1 211.7L165.7 211.7L143.7 286.7L113.8 286.7L93.2 224.2L102.5 224.2L81.9 286.7L52.0 286.7L30.0 211.7L54.7 211.7L71.9 276.6L65.0 276.5L85.6 211.7L110.1 211.7ZM179.9 241.0L235.6 241.0L235.6 257.4L179.9 257.4L179.9 241.0ZM191.1 220.2L195.8 249.2L191.1 278.2L182.0 268.1L239.1 268.1L239.1 286.7L168.0 286.7L173.6 249.2L168.0 211.7L238.6 211.7L238.6 230.3L182.0 230.3L191.1 220.2ZM257.2 241.0L312.9 241.0L312.9 257.4L257.2 257.4L257.2 241.0ZM268.4 220.2L273.1 249.2L268.4 278.2L259.3 268.1L316.4 268.1L316.4 286.7L245.3 286.7L250.9 249.2L245.3 211.7L315.9 211.7L315.9 230.3L259.3 230.3L268.4 220.2ZM345.8 286.7L324.7 286.7L324.7 211.7L347.8 211.7L347.8 268.4L341.8 263.5L381.7 211.7L406.1 211.7L345.8 286.7ZM380.8 286.7L360.6 251.6L377.7 237.8L407.2 286.7L380.8 286.7Z"/>
<defs><mask id="hollow"><rect width="440" height="408" fill="#fff"/><path fill="#000" d="M55.3 329.1L32.2 329.1Q32.9 320.1 38.3 313.5Q43.6 307.0 52.5 303.5Q61.4 300.0 72.5 300.0L72.5 300.0Q83.1 300.0 91.1 303.2Q99.0 306.4 103.4 312.0Q107.8 317.7 107.8 325.2L107.8 325.2Q107.8 331.1 104.6 336.1Q101.3 341.1 94.5 345.8Q87.7 350.6 76.8 355.5L76.8 355.5L57.7 364.3L57.2 358.5L109.8 358.5L109.8 376.7L34.1 376.7L34.1 360.7L66.4 343.0Q73.7 339.0 77.6 336.3Q81.5 333.7 83.1 331.4Q84.7 329.2 84.7 326.6L84.7 326.6Q84.7 323.9 83.2 321.9Q81.7 319.9 78.8 318.8Q75.8 317.7 71.6 317.7L71.6 317.7Q66.1 317.7 62.7 319.3Q59.2 320.8 57.5 323.4Q55.7 326.0 55.3 329.1L55.3 329.1ZM172.2 378.4L172.2 378.4Q159.2 378.4 149.6 373.5Q139.9 368.6 134.6 359.8Q129.3 351.0 129.3 339.2L129.3 339.2Q129.3 327.4 134.6 318.6Q139.9 309.8 149.6 304.9Q159.2 300.0 172.2 300.0L172.2 300.0Q185.1 300.0 194.8 304.9Q204.4 309.8 209.8 318.6Q215.1 327.4 215.1 339.2L215.1 339.2Q215.1 351.0 209.8 359.8Q204.4 368.6 194.8 373.5Q185.1 378.4 172.2 378.4ZM172.2 359.6L172.2 359.6Q181.6 359.6 186.8 354.3Q191.9 348.9 191.9 339.2L191.9 339.2Q191.9 329.4 186.8 324.1Q181.6 318.8 172.2 318.8L172.2 318.8Q162.9 318.8 157.7 324.1Q152.4 329.4 152.4 339.2L152.4 339.2Q152.4 348.9 157.7 354.3Q162.9 359.6 172.2 359.6Z"/></mask></defs>
<path fill="none" stroke="#fff" stroke-width="6.0" stroke-linejoin="round" mask="url(#hollow)" d="M55.3 329.1L32.2 329.1Q32.9 320.1 38.3 313.5Q43.6 307.0 52.5 303.5Q61.4 300.0 72.5 300.0L72.5 300.0Q83.1 300.0 91.1 303.2Q99.0 306.4 103.4 312.0Q107.8 317.7 107.8 325.2L107.8 325.2Q107.8 331.1 104.6 336.1Q101.3 341.1 94.5 345.8Q87.7 350.6 76.8 355.5L76.8 355.5L57.7 364.3L57.2 358.5L109.8 358.5L109.8 376.7L34.1 376.7L34.1 360.7L66.4 343.0Q73.7 339.0 77.6 336.3Q81.5 333.7 83.1 331.4Q84.7 329.2 84.7 326.6L84.7 326.6Q84.7 323.9 83.2 321.9Q81.7 319.9 78.8 318.8Q75.8 317.7 71.6 317.7L71.6 317.7Q66.1 317.7 62.7 319.3Q59.2 320.8 57.5 323.4Q55.7 326.0 55.3 329.1L55.3 329.1ZM172.2 378.4L172.2 378.4Q159.2 378.4 149.6 373.5Q139.9 368.6 134.6 359.8Q129.3 351.0 129.3 339.2L129.3 339.2Q129.3 327.4 134.6 318.6Q139.9 309.8 149.6 304.9Q159.2 300.0 172.2 300.0L172.2 300.0Q185.1 300.0 194.8 304.9Q204.4 309.8 209.8 318.6Q215.1 327.4 215.1 339.2L215.1 339.2Q215.1 351.0 209.8 359.8Q204.4 368.6 194.8 373.5Q185.1 378.4 172.2 378.4ZM172.2 359.6L172.2 359.6Q181.6 359.6 186.8 354.3Q191.9 348.9 191.9 339.2L191.9 339.2Q191.9 329.4 186.8 324.1Q181.6 318.8 172.2 318.8L172.2 318.8Q162.9 318.8 157.7 324.1Q152.4 329.4 152.4 339.2L152.4 339.2Q152.4 348.9 157.7 354.3Q162.9 359.6 172.2 359.6Z"/>
<path fill="#EE2B2B" d="M256.4 329.1L233.3 329.1Q234.0 320.1 239.4 313.5Q244.7 307.0 253.6 303.5Q262.5 300.0 273.6 300.0L273.6 300.0Q284.2 300.0 292.2 303.2Q300.1 306.4 304.5 312.0Q308.9 317.7 308.9 325.2L308.9 325.2Q308.9 331.1 305.7 336.1Q302.4 341.1 295.6 345.8Q288.8 350.6 277.9 355.5L277.9 355.5L258.8 364.3L258.3 358.5L310.9 358.5L310.9 376.7L235.2 376.7L235.2 360.7L267.5 343.0Q274.8 339.0 278.7 336.3Q282.6 333.7 284.2 331.4Q285.8 329.2 285.8 326.6L285.8 326.6Q285.8 323.9 284.3 321.9Q282.8 319.9 279.9 318.8Q276.9 317.7 272.7 317.7L272.7 317.7Q267.2 317.7 263.8 319.3Q260.3 320.8 258.6 323.4Q256.8 326.0 256.4 329.1L256.4 329.1ZM371.9 300.0L371.9 300.0Q381.9 300.0 389.7 303.0Q397.4 306.1 402.2 311.3Q406.9 316.4 407.9 322.9L407.9 322.9L386.6 322.9Q385.3 320.2 381.9 318.4Q378.5 316.6 372.5 316.6L372.5 316.6Q365.7 316.6 361.2 319.1Q356.6 321.6 354.4 326.4Q352.1 331.2 352.1 338.2L352.1 338.2Q352.1 346.1 354.6 351.3Q357.0 356.5 361.6 359.1Q366.2 361.7 372.8 361.7L372.8 361.7Q377.1 361.7 380.1 360.5Q383.1 359.3 384.6 357.3Q386.1 355.3 386.1 352.9L386.1 352.9Q386.1 350.2 384.7 348.3Q383.2 346.3 380.3 345.3Q377.4 344.3 373.2 344.3L373.2 344.3Q367.5 344.3 362.2 346.6Q356.9 349.0 352.2 354.0L352.2 354.0L344.7 349.0Q347.7 342.7 352.5 337.9Q357.3 333.2 364.0 330.4Q370.6 327.7 379.1 327.7L379.1 327.7Q388.6 327.7 395.4 330.8Q402.1 333.9 405.8 339.4Q409.4 344.9 409.4 352.1L409.4 352.1Q409.4 359.7 405.1 365.6Q400.8 371.6 392.6 375.0Q384.4 378.4 372.4 378.4L372.4 378.4Q358.3 378.4 349.0 373.4Q339.7 368.4 335.2 359.6Q330.6 350.7 330.6 339.3L330.6 339.3Q330.6 327.9 335.2 319.0Q339.8 310.1 349.0 305.0Q358.2 300.0 371.9 300.0Z"/>
</svg>
