<svg width="256" height="256" viewBox="0 0 256 256" fill="none" xmlns="http://www.w3.org/2000/svg">
<g clip-path="url(#clip0_2026_6)">
<path d="M56.3825 104.8C52.6492 104.8 49.3692 104.107 46.5425 102.72C43.7692 101.28 41.6092 99.28 40.0625 96.72C38.5692 94.1067 37.8225 91.04 37.8225 87.52V62.08C37.8225 58.5067 38.5692 55.44 40.0625 52.88C41.6092 50.32 43.7692 48.3467 46.5425 46.96C49.3692 45.52 52.6492 44.8 56.3825 44.8C60.1692 44.8 63.4225 45.52 66.1425 46.96C68.9158 48.3467 71.0758 50.32 72.6225 52.88C74.1692 55.44 74.9425 58.5067 74.9425 62.08H64.8625C64.8625 59.3067 64.1158 57.2 62.6225 55.76C61.1825 54.32 59.1025 53.6 56.3825 53.6C53.6625 53.6 51.5558 54.32 50.0625 55.76C48.5692 57.2 47.8225 59.28 47.8225 62V87.52C47.8225 90.24 48.5692 92.3467 50.0625 93.84C51.5558 95.28 53.6625 96 56.3825 96C59.1025 96 61.1825 95.28 62.6225 93.84C64.1158 92.3467 64.8625 90.24 64.8625 87.52H74.9425C74.9425 90.9867 74.1692 94.0267 72.6225 96.64C71.0758 99.2533 68.9158 101.28 66.1425 102.72C63.4225 104.107 60.1692 104.8 56.3825 104.8ZM88.2713 104V45.6H98.2713V94.72H123.071V104H88.2713ZM134.32 210V200.32L152.56 182C155.12 179.387 157.013 177.04 158.24 174.96C159.467 172.827 160.08 170.64 160.08 168.4C160.08 165.68 159.333 163.573 157.84 162.08C156.347 160.533 154.32 159.76 151.76 159.76C148.933 159.76 146.72 160.587 145.12 162.24C143.52 163.84 142.72 166.08 142.72 168.96H132.72C132.773 165.227 133.573 162.027 135.12 159.36C136.72 156.64 138.96 154.533 141.84 153.04C144.72 151.547 148.08 150.8 151.92 150.8C155.6 150.8 158.8 151.493 161.52 152.88C164.24 154.267 166.347 156.213 167.84 158.72C169.333 161.227 170.08 164.213 170.08 167.68C170.08 171.253 169.147 174.747 167.28 178.16C165.467 181.52 162.533 185.147 158.48 189.04L146.32 200.96H170.8V210H134.32ZM199.889 210.8C194.502 210.8 190.182 209.467 186.929 206.8C183.675 204.08 181.889 200.4 181.569 195.76H191.569C191.782 197.787 192.582 199.36 193.969 200.48C195.409 201.547 197.382 202.08 199.889 202.08C202.662 202.08 204.769 201.36 206.209 199.92C207.649 198.427 208.369 196.373 208.369 193.76V188.08C208.369 185.413 207.649 183.387 206.209 182C204.769 180.56 202.662 179.84 199.889 179.84C198.182 179.84 196.715 180.187 195.489 180.88C194.262 181.573 193.329 182.533 192.689 183.76H182.929L183.329 151.6H216.209V160.64H192.769L192.609 177.6H194.929L192.529 179.6C192.529 177.147 193.489 175.227 195.409 173.84C197.382 172.4 200.022 171.68 203.329 171.68C208.075 171.627 211.755 173.067 214.369 176C217.035 178.88 218.369 182.907 218.369 188.08V193.76C218.369 199.04 216.715 203.2 213.409 206.24C210.155 209.28 205.649 210.8 199.889 210.8Z" fill="#EE2B2B"/>
<path d="M146.96 104V54.88H131.68V45.6H172.32V54.88H157.04V104H146.96ZM183.249 104L177.249 45.6H185.889L189.409 86.4C189.515 87.3067 189.595 88.4267 189.649 89.76C189.755 91.04 189.835 92.3467 189.889 93.68C189.995 95.0133 190.049 96.1867 190.049 97.2C190.155 96.1867 190.262 95.0133 190.369 93.68C190.475 92.3467 190.582 91.04 190.689 89.76C190.849 88.4267 190.982 87.3067 191.089 86.4L195.889 45.6H204.289L208.769 86.4C208.929 87.3067 209.062 88.4267 209.169 89.76C209.329 91.04 209.489 92.3467 209.649 93.68C209.809 95.0133 209.942 96.1867 210.049 97.2C210.102 96.1867 210.155 95.0133 210.209 93.68C210.262 92.3467 210.315 91.04 210.369 89.76C210.475 88.4267 210.582 87.3067 210.689 86.4L214.129 45.6H222.689L216.369 104H205.329L201.009 63.04C200.902 62.0267 200.769 60.8533 200.609 59.52C200.502 58.1333 200.395 56.7733 200.289 55.44C200.182 54.0533 200.102 52.88 200.049 51.92C199.995 52.88 199.889 54.0533 199.729 55.44C199.622 56.7733 199.515 58.1333 199.409 59.52C199.302 60.8533 199.195 62.0267 199.089 63.04L194.369 104H183.249ZM38.3825 210V200.32L56.6225 182C59.1825 179.387 61.0758 177.04 62.3025 174.96C63.5292 172.827 64.1425 170.64 64.1425 168.4C64.1425 165.68 63.3958 163.573 61.9025 162.08C60.4092 160.533 58.3825 159.76 55.8225 159.76C52.9958 159.76 50.7825 160.587 49.1825 162.24C47.5825 163.84 46.7825 166.08 46.7825 168.96H36.7825C36.8358 165.227 37.6358 162.027 39.1825 159.36C40.7825 156.64 43.0225 154.533 45.9025 153.04C48.7825 151.547 52.1425 150.8 55.9825 150.8C59.6625 150.8 62.8625 151.493 65.5825 152.88C68.3025 154.267 70.4092 156.213 71.9025 158.72C73.3958 161.227 74.1425 164.213 74.1425 167.68C74.1425 171.253 73.2092 174.747 71.3425 178.16C69.5292 181.52 66.5958 185.147 62.5425 189.04L50.3825 200.96H74.8625V210H38.3825ZM104.031 210.8C100.245 210.8 96.9646 210.08 94.1913 208.64C91.4179 207.2 89.2579 205.173 87.7113 202.56C86.2179 199.947 85.4713 196.88 85.4713 193.36V168.24C85.4713 164.72 86.2179 161.653 87.7113 159.04C89.2579 156.427 91.4179 154.4 94.1913 152.96C96.9646 151.52 100.245 150.8 104.031 150.8C107.871 150.8 111.151 151.52 113.871 152.96C116.645 154.4 118.778 156.427 120.271 159.04C121.818 161.653 122.591 164.72 122.591 168.24V193.36C122.591 196.88 121.818 199.947 120.271 202.56C118.778 205.173 116.645 207.2 113.871 208.64C111.098 210.08 107.818 210.8 104.031 210.8ZM104.031 202.16C106.805 202.16 109.018 201.36 110.671 199.76C112.325 198.16 113.151 196.027 113.151 193.36V168.24C113.151 165.573 112.325 163.44 110.671 161.84C109.018 160.24 106.805 159.44 104.031 159.44C101.258 159.44 99.0446 160.24 97.3913 161.84C95.7379 163.44 94.9113 165.573 94.9113 168.24V193.36C94.9113 196.027 95.7379 198.16 97.3913 199.76C99.0446 201.36 101.258 202.16 104.031 202.16ZM104.031 186C102.485 186 101.205 185.493 100.191 184.48C99.2313 183.467 98.7513 182.16 98.7513 180.56C98.7513 178.96 99.2313 177.68 100.191 176.72C101.151 175.76 102.431 175.28 104.031 175.28C105.631 175.28 106.911 175.76 107.871 176.72C108.831 177.68 109.311 178.96 109.311 180.56C109.311 182.16 108.831 183.467 107.871 184.48C106.911 185.493 105.631 186 104.031 186Z" fill="white"/>
</g>
<defs>
<clipPath id="clip0_2026_6">
<rect width="256" height="256" fill="white"/>
</clipPath>
</defs>
</svg>
