<svg width="1000" height="300" viewBox="0 0 1000 300" fill="none" xmlns="http://www.w3.org/2000/svg">
<path d="M44.6325 101.3C40.8992 101.3 37.6192 100.607 34.7925 99.22C32.0192 97.78 29.8592 95.78 28.3125 93.22C26.8192 90.6067 26.0725 87.54 26.0725 84.02V58.58C26.0725 55.0067 26.8192 51.94 28.3125 49.38C29.8592 46.82 32.0192 44.8467 34.7925 43.46C37.6192 42.02 40.8992 41.3 44.6325 41.3C48.4192 41.3 51.6725 42.02 54.3925 43.46C57.1658 44.8467 59.3258 46.82 60.8725 49.38C62.4192 51.94 63.1925 55.0067 63.1925 58.58H53.1125C53.1125 55.8067 52.3658 53.7 50.8725 52.26C49.4325 50.82 47.3525 50.1 44.6325 50.1C41.9125 50.1 39.8058 50.82 38.3125 52.26C36.8192 53.7 36.0725 55.78 36.0725 58.5V84.02C36.0725 86.74 36.8192 88.8467 38.3125 90.34C39.8058 91.78 41.9125 92.5 44.6325 92.5C47.3525 92.5 49.4325 91.78 50.8725 90.34C52.3658 88.8467 53.1125 86.74 53.1125 84.02H63.1925C63.1925 87.4867 62.4192 90.5267 60.8725 93.14C59.3258 95.7533 57.1658 97.78 54.3925 99.22C51.6725 100.607 48.4192 101.3 44.6325 101.3ZM74.4413 100.5V42.1H84.4413V65.54H100.121V42.1H110.121V100.5H100.121V74.82H84.4413V100.5H74.4413ZM123.45 100.5V91.7H135.21V50.9H123.45V42.1H157.05V50.9H145.29V91.7H157.05V100.5H123.45ZM172.459 100.5V42.1H182.459V91.22H207.259V100.5H172.459ZM219.228 100.5V42.1H254.268V50.82H229.068V66.02H251.468V74.66H229.068V91.78H254.268V100.5H219.228ZM327.085 100.5V51.38H311.805V42.1H352.445V51.38H337.165V100.5H327.085ZM363.134 100.5V42.1H398.174V50.82H372.974V66.02H395.374V74.66H372.974V91.78H398.174V100.5H363.134ZM428.383 101.3C424.649 101.3 421.369 100.607 418.543 99.22C415.769 97.78 413.609 95.78 412.063 93.22C410.569 90.6067 409.823 87.54 409.823 84.02V58.58C409.823 55.0067 410.569 51.94 412.063 49.38C413.609 46.82 415.769 44.8467 418.543 43.46C421.369 42.02 424.649 41.3 428.383 41.3C432.169 41.3 435.423 42.02 438.143 43.46C440.916 44.8467 443.076 46.82 444.623 49.38C446.169 51.94 446.943 55.0067 446.943 58.58H436.863C436.863 55.8067 436.116 53.7 434.623 52.26C433.183 50.82 431.103 50.1 428.383 50.1C425.663 50.1 423.556 50.82 422.063 52.26C420.569 53.7 419.823 55.78 419.823 58.5V84.02C419.823 86.74 420.569 88.8467 422.063 90.34C423.556 91.78 425.663 92.5 428.383 92.5C431.103 92.5 433.183 91.78 434.623 90.34C436.116 88.8467 436.863 86.74 436.863 84.02H446.943C446.943 87.4867 446.169 90.5267 444.623 93.14C443.076 95.7533 440.916 97.78 438.143 99.22C435.423 100.607 432.169 101.3 428.383 101.3ZM458.191 100.5V42.1H468.191V65.54H483.871V42.1H493.871V100.5H483.871V74.82H468.191V100.5H458.191ZM555.249 100.5L549.249 42.1H557.889L561.409 82.9C561.515 83.8067 561.595 84.9267 561.649 86.26C561.755 87.54 561.835 88.8467 561.889 90.18C561.995 91.5133 562.049 92.6867 562.049 93.7C562.155 92.6867 562.262 91.5133 562.369 90.18C562.475 88.8467 562.582 87.54 562.689 86.26C562.849 84.9267 562.982 83.8067 563.089 82.9L567.889 42.1H576.289L580.769 82.9C580.929 83.8067 581.062 84.9267 581.169 86.26C581.329 87.54 581.489 88.8467 581.649 90.18C581.809 91.5133 581.942 92.6867 582.049 93.7C582.102 92.6867 582.155 91.5133 582.209 90.18C582.262 88.8467 582.315 87.54 582.369 86.26C582.475 84.9267 582.582 83.8067 582.689 82.9L586.129 42.1H594.689L588.369 100.5H577.329L573.009 59.54C572.902 58.5267 572.769 57.3533 572.609 56.02C572.502 54.6333 572.395 53.2733 572.289 51.94C572.182 50.5533 572.102 49.38 572.049 48.42C571.995 49.38 571.889 50.5533 571.729 51.94C571.622 53.2733 571.515 54.6333 571.409 56.02C571.302 57.3533 571.195 58.5267 571.089 59.54L566.369 100.5H555.249ZM602.978 100.5V42.1H638.018V50.82H612.818V66.02H635.218V74.66H612.818V91.78H638.018V100.5H602.978ZM650.946 100.5V42.1H685.986V50.82H660.786V66.02H683.186V74.66H660.786V91.78H685.986V100.5H650.946ZM697.955 100.5V42.1H707.955V65.7H714.915L725.875 42.1H736.755L723.715 70.1L737.395 100.5H726.275L714.755 74.82H707.955V100.5H697.955ZM794.133 100.5V90.82L812.373 72.5C814.933 69.8867 816.826 67.54 818.053 65.46C819.279 63.3267 819.893 61.14 819.893 58.9C819.893 56.18 819.146 54.0733 817.653 52.58C816.159 51.0333 814.133 50.26 811.573 50.26C808.746 50.26 806.533 51.0867 804.933 52.74C803.333 54.34 802.533 56.58 802.533 59.46H792.533C792.586 55.7267 793.386 52.5267 794.933 49.86C796.533 47.14 798.773 45.0333 801.653 43.54C804.533 42.0467 807.893 41.3 811.733 41.3C815.413 41.3 818.613 41.9933 821.333 43.38C824.053 44.7667 826.159 46.7133 827.653 49.22C829.146 51.7267 829.893 54.7133 829.893 58.18C829.893 61.7533 828.959 65.2467 827.093 68.66C825.279 72.02 822.346 75.6467 818.293 79.54L806.133 91.46H830.613V100.5H794.133ZM859.781 101.3C855.995 101.3 852.715 100.58 849.941 99.14C847.168 97.7 845.008 95.6733 843.461 93.06C841.968 90.4467 841.221 87.38 841.221 83.86V58.74C841.221 55.22 841.968 52.1533 843.461 49.54C845.008 46.9267 847.168 44.9 849.941 43.46C852.715 42.02 855.995 41.3 859.781 41.3C863.621 41.3 866.901 42.02 869.621 43.46C872.395 44.9 874.528 46.9267 876.021 49.54C877.568 52.1533 878.341 55.22 878.341 58.74V83.86C878.341 87.38 877.568 90.4467 876.021 93.06C874.528 95.6733 872.395 97.7 869.621 99.14C866.848 100.58 863.568 101.3 859.781 101.3ZM859.781 92.66C862.555 92.66 864.768 91.86 866.421 90.26C868.075 88.66 868.901 86.5267 868.901 83.86V58.74C868.901 56.0733 868.075 53.94 866.421 52.34C864.768 50.74 862.555 49.94 859.781 49.94C857.008 49.94 854.795 50.74 853.141 52.34C851.488 53.94 850.661 56.0733 850.661 58.74V83.86C850.661 86.5267 851.488 88.66 853.141 90.26C854.795 91.86 857.008 92.66 859.781 92.66ZM859.781 76.5C858.235 76.5 856.955 75.9933 855.941 74.98C854.981 73.9667 854.501 72.66 854.501 71.06C854.501 69.46 854.981 68.18 855.941 67.22C856.901 66.26 858.181 65.78 859.781 65.78C861.381 65.78 862.661 66.26 863.621 67.22C864.581 68.18 865.061 69.46 865.061 71.06C865.061 72.66 864.581 73.9667 863.621 74.98C862.661 75.9933 861.381 76.5 859.781 76.5ZM890.07 100.5V90.82L908.31 72.5C910.87 69.8867 912.763 67.54 913.99 65.46C915.217 63.3267 915.83 61.14 915.83 58.9C915.83 56.18 915.083 54.0733 913.59 52.58C912.097 51.0333 910.07 50.26 907.51 50.26C904.683 50.26 902.47 51.0867 900.87 52.74C899.27 54.34 898.47 56.58 898.47 59.46H888.47C888.523 55.7267 889.323 52.5267 890.87 49.86C892.47 47.14 894.71 45.0333 897.59 43.54C900.47 42.0467 903.83 41.3 907.67 41.3C911.35 41.3 914.55 41.9933 917.27 43.38C919.99 44.7667 922.097 46.7133 923.59 49.22C925.083 51.7267 925.83 54.7133 925.83 58.18C925.83 61.7533 924.897 65.2467 923.03 68.66C921.217 72.02 918.283 75.6467 914.23 79.54L902.07 91.46H926.55V100.5H890.07ZM955.639 101.3C950.252 101.3 945.932 99.9667 942.679 97.3C939.425 94.58 937.639 90.9 937.319 86.26H947.319C947.532 88.2867 948.332 89.86 949.719 90.98C951.159 92.0467 953.132 92.58 955.639 92.58C958.412 92.58 960.519 91.86 961.959 90.42C963.399 88.9267 964.119 86.8733 964.119 84.26V78.58C964.119 75.9133 963.399 73.8867 961.959 72.5C960.519 71.06 958.412 70.34 955.639 70.34C953.932 70.34 952.465 70.6867 951.239 71.38C950.012 72.0733 949.079 73.0333 948.439 74.26H938.679L939.079 42.1H971.959V51.14H948.519L948.359 68.1H950.679L948.279 70.1C948.279 67.6467 949.239 65.7267 951.159 64.34C953.132 62.9 955.772 62.18 959.079 62.18C963.825 62.1267 967.505 63.5667 970.119 66.5C972.785 69.38 974.119 73.4067 974.119 78.58V84.26C974.119 89.54 972.465 93.7 969.159 96.74C965.905 99.78 961.399 101.3 955.639 101.3Z" fill="#EE2B2B"/>
<path d="M44.6325 179.3C40.8992 179.3 37.6192 178.607 34.7925 177.22C32.0192 175.78 29.8592 173.78 28.3125 171.22C26.8192 168.607 26.0725 165.54 26.0725 162.02V136.58C26.0725 133.007 26.8192 129.94 28.3125 127.38C29.8592 124.82 32.0192 122.847 34.7925 121.46C37.6192 120.02 40.8992 119.3 44.6325 119.3C48.4192 119.3 51.6725 120.02 54.3925 121.46C57.1658 122.847 59.3258 124.82 60.8725 127.38C62.4192 129.94 63.1925 133.007 63.1925 136.58H53.1125C53.1125 133.807 52.3658 131.7 50.8725 130.26C49.4325 128.82 47.3525 128.1 44.6325 128.1C41.9125 128.1 39.8058 128.82 38.3125 130.26C36.8192 131.7 36.0725 133.78 36.0725 136.5V162.02C36.0725 164.74 36.8192 166.847 38.3125 168.34C39.8058 169.78 41.9125 170.5 44.6325 170.5C47.3525 170.5 49.4325 169.78 50.8725 168.34C52.3658 166.847 53.1125 164.74 53.1125 162.02H63.1925C63.1925 165.487 62.4192 168.527 60.8725 171.14C59.3258 173.753 57.1658 175.78 54.3925 177.22C51.6725 178.607 48.4192 179.3 44.6325 179.3ZM74.4413 178.5V120.1H84.4413V143.54H100.121V120.1H110.121V178.5H100.121V152.82H84.4413V178.5H74.4413ZM123.45 178.5V169.7H135.21V128.9H123.45V120.1H157.05V128.9H145.29V169.7H157.05V178.5H123.45ZM172.459 178.5V120.1H182.459V169.22H207.259V178.5H172.459ZM219.228 178.5V120.1H254.268V128.82H229.068V144.02H251.468V152.66H229.068V169.78H254.268V178.5H219.228ZM327.085 178.5V129.38H311.805V120.1H352.445V129.38H337.165V178.5H327.085ZM363.134 178.5V120.1H398.174V128.82H372.974V144.02H395.374V152.66H372.974V169.78H398.174V178.5H363.134ZM428.383 179.3C424.649 179.3 421.369 178.607 418.543 177.22C415.769 175.78 413.609 173.78 412.063 171.22C410.569 168.607 409.823 165.54 409.823 162.02V136.58C409.823 133.007 410.569 129.94 412.063 127.38C413.609 124.82 415.769 122.847 418.543 121.46C421.369 120.02 424.649 119.3 428.383 119.3C432.169 119.3 435.423 120.02 438.143 121.46C440.916 122.847 443.076 124.82 444.623 127.38C446.169 129.94 446.943 133.007 446.943 136.58H436.863C436.863 133.807 436.116 131.7 434.623 130.26C433.183 128.82 431.103 128.1 428.383 128.1C425.663 128.1 423.556 128.82 422.063 130.26C420.569 131.7 419.823 133.78 419.823 136.5V162.02C419.823 164.74 420.569 166.847 422.063 168.34C423.556 169.78 425.663 170.5 428.383 170.5C431.103 170.5 433.183 169.78 434.623 168.34C436.116 166.847 436.863 164.74 436.863 162.02H446.943C446.943 165.487 446.169 168.527 444.623 171.14C443.076 173.753 440.916 175.78 438.143 177.22C435.423 178.607 432.169 179.3 428.383 179.3ZM458.191 178.5V120.1H468.191V143.54H483.871V120.1H493.871V178.5H483.871V152.82H468.191V178.5H458.191ZM555.249 178.5L549.249 120.1H557.889L561.409 160.9C561.515 161.807 561.595 162.927 561.649 164.26C561.755 165.54 561.835 166.847 561.889 168.18C561.995 169.513 562.049 170.687 562.049 171.7C562.155 170.687 562.262 169.513 562.369 168.18C562.475 166.847 562.582 165.54 562.689 164.26C562.849 162.927 562.982 161.807 563.089 160.9L567.889 120.1H576.289L580.769 160.9C580.929 161.807 581.062 162.927 581.169 164.26C581.329 165.54 581.489 166.847 581.649 168.18C581.809 169.513 581.942 170.687 582.049 171.7C582.102 170.687 582.155 169.513 582.209 168.18C582.262 166.847 582.315 165.54 582.369 164.26C582.475 162.927 582.582 161.807 582.689 160.9L586.129 120.1H594.689L588.369 178.5H577.329L573.009 137.54C572.902 136.527 572.769 135.353 572.609 134.02C572.502 132.633 572.395 131.273 572.289 129.94C572.182 128.553 572.102 127.38 572.049 126.42C571.995 127.38 571.889 128.553 571.729 129.94C571.622 131.273 571.515 132.633 571.409 134.02C571.302 135.353 571.195 136.527 571.089 137.54L566.369 178.5H555.249ZM602.978 178.5V120.1H638.018V128.82H612.818V144.02H635.218V152.66H612.818V169.78H638.018V178.5H602.978ZM650.946 178.5V120.1H685.986V128.82H660.786V144.02H683.186V152.66H660.786V169.78H685.986V178.5H650.946ZM697.955 178.5V120.1H707.955V143.7H714.915L725.875 120.1H736.755L723.715 148.1L737.395 178.5H726.275L714.755 152.82H707.955V178.5H697.955ZM794.133 178.5V168.82L812.373 150.5C814.933 147.887 816.826 145.54 818.053 143.46C819.279 141.327 819.893 139.14 819.893 136.9C819.893 134.18 819.146 132.073 817.653 130.58C816.159 129.033 814.133 128.26 811.573 128.26C808.746 128.26 806.533 129.087 804.933 130.74C803.333 132.34 802.533 134.58 802.533 137.46H792.533C792.586 133.727 793.386 130.527 794.933 127.86C796.533 125.14 798.773 123.033 801.653 121.54C804.533 120.047 807.893 119.3 811.733 119.3C815.413 119.3 818.613 119.993 821.333 121.38C824.053 122.767 826.159 124.713 827.653 127.22C829.146 129.727 829.893 132.713 829.893 136.18C829.893 139.753 828.959 143.247 827.093 146.66C825.279 150.02 822.346 153.647 818.293 157.54L806.133 169.46H830.613V178.5H794.133ZM859.781 179.3C855.995 179.3 852.715 178.58 849.941 177.14C847.168 175.7 845.008 173.673 843.461 171.06C841.968 168.447 841.221 165.38 841.221 161.86V136.74C841.221 133.22 841.968 130.153 843.461 127.54C845.008 124.927 847.168 122.9 849.941 121.46C852.715 120.02 855.995 119.3 859.781 119.3C863.621 119.3 866.901 120.02 869.621 121.46C872.395 122.9 874.528 124.927 876.021 127.54C877.568 130.153 878.341 133.22 878.341 136.74V161.86C878.341 165.38 877.568 168.447 876.021 171.06C874.528 173.673 872.395 175.7 869.621 177.14C866.848 178.58 863.568 179.3 859.781 179.3ZM859.781 170.66C862.555 170.66 864.768 169.86 866.421 168.26C868.075 166.66 868.901 164.527 868.901 161.86V136.74C868.901 134.073 868.075 131.94 866.421 130.34C864.768 128.74 862.555 127.94 859.781 127.94C857.008 127.94 854.795 128.74 853.141 130.34C851.488 131.94 850.661 134.073 850.661 136.74V161.86C850.661 164.527 851.488 166.66 853.141 168.26C854.795 169.86 857.008 170.66 859.781 170.66ZM859.781 154.5C858.235 154.5 856.955 153.993 855.941 152.98C854.981 151.967 854.501 150.66 854.501 149.06C854.501 147.46 854.981 146.18 855.941 145.22C856.901 144.26 858.181 143.78 859.781 143.78C861.381 143.78 862.661 144.26 863.621 145.22C864.581 146.18 865.061 147.46 865.061 149.06C865.061 150.66 864.581 151.967 863.621 152.98C862.661 153.993 861.381 154.5 859.781 154.5ZM890.07 178.5V168.82L908.31 150.5C910.87 147.887 912.763 145.54 913.99 143.46C915.217 141.327 915.83 139.14 915.83 136.9C915.83 134.18 915.083 132.073 913.59 130.58C912.097 129.033 910.07 128.26 907.51 128.26C904.683 128.26 902.47 129.087 900.87 130.74C899.27 132.34 898.47 134.58 898.47 137.46H888.47C888.523 133.727 889.323 130.527 890.87 127.86C892.47 125.14 894.71 123.033 897.59 121.54C900.47 120.047 903.83 119.3 907.67 119.3C911.35 119.3 914.55 119.993 917.27 121.38C919.99 122.767 922.097 124.713 923.59 127.22C925.083 129.727 925.83 132.713 925.83 136.18C925.83 139.753 924.897 143.247 923.03 146.66C921.217 150.02 918.283 153.647 914.23 157.54L902.07 169.46H926.55V178.5H890.07ZM955.639 179.3C950.252 179.3 945.932 177.967 942.679 175.3C939.425 172.58 937.639 168.9 937.319 164.26H947.319C947.532 166.287 948.332 167.86 949.719 168.98C951.159 170.047 953.132 170.58 955.639 170.58C958.412 170.58 960.519 169.86 961.959 168.42C963.399 166.927 964.119 164.873 964.119 162.26V156.58C964.119 153.913 963.399 151.887 961.959 150.5C960.519 149.06 958.412 148.34 955.639 148.34C953.932 148.34 952.465 148.687 951.239 149.38C950.012 150.073 949.079 151.033 948.439 152.26H938.679L939.079 120.1H971.959V129.14H948.519L948.359 146.1H950.679L948.279 148.1C948.279 145.647 949.239 143.727 951.159 142.34C953.132 140.9 955.772 140.18 959.079 140.18C963.825 140.127 967.505 141.567 970.119 144.5C972.785 147.38 974.119 151.407 974.119 156.58V162.26C974.119 167.54 972.465 171.7 969.159 174.74C965.905 177.78 961.399 179.3 955.639 179.3Z" fill="#F68B8B"/>
<path d="M44.6325 257.3C40.8992 257.3 37.6192 256.607 34.7925 255.22C32.0192 253.78 29.8592 251.78 28.3125 249.22C26.8192 246.607 26.0725 243.54 26.0725 240.02V214.58C26.0725 211.007 26.8192 207.94 28.3125 205.38C29.8592 202.82 32.0192 200.847 34.7925 199.46C37.6192 198.02 40.8992 197.3 44.6325 197.3C48.4192 197.3 51.6725 198.02 54.3925 199.46C57.1658 200.847 59.3258 202.82 60.8725 205.38C62.4192 207.94 63.1925 211.007 63.1925 214.58H53.1125C53.1125 211.807 52.3658 209.7 50.8725 208.26C49.4325 206.82 47.3525 206.1 44.6325 206.1C41.9125 206.1 39.8058 206.82 38.3125 208.26C36.8192 209.7 36.0725 211.78 36.0725 214.5V240.02C36.0725 242.74 36.8192 244.847 38.3125 246.34C39.8058 247.78 41.9125 248.5 44.6325 248.5C47.3525 248.5 49.4325 247.78 50.8725 246.34C52.3658 244.847 53.1125 242.74 53.1125 240.02H63.1925C63.1925 243.487 62.4192 246.527 60.8725 249.14C59.3258 251.753 57.1658 253.78 54.3925 255.22C51.6725 256.607 48.4192 257.3 44.6325 257.3ZM74.4413 256.5V198.1H84.4413V221.54H100.121V198.1H110.121V256.5H100.121V230.82H84.4413V256.5H74.4413ZM123.45 256.5V247.7H135.21V206.9H123.45V198.1H157.05V206.9H145.29V247.7H157.05V256.5H123.45ZM172.459 256.5V198.1H182.459V247.22H207.259V256.5H172.459ZM219.228 256.5V198.1H254.268V206.82H229.068V222.02H251.468V230.66H229.068V247.78H254.268V256.5H219.228ZM327.085 256.5V207.38H311.805V198.1H352.445V207.38H337.165V256.5H327.085ZM363.134 256.5V198.1H398.174V206.82H372.974V222.02H395.374V230.66H372.974V247.78H398.174V256.5H363.134ZM428.383 257.3C424.649 257.3 421.369 256.607 418.543 255.22C415.769 253.78 413.609 251.78 412.063 249.22C410.569 246.607 409.823 243.54 409.823 240.02V214.58C409.823 211.007 410.569 207.94 412.063 205.38C413.609 202.82 415.769 200.847 418.543 199.46C421.369 198.02 424.649 197.3 428.383 197.3C432.169 197.3 435.423 198.02 438.143 199.46C440.916 200.847 443.076 202.82 444.623 205.38C446.169 207.94 446.943 211.007 446.943 214.58H436.863C436.863 211.807 436.116 209.7 434.623 208.26C433.183 206.82 431.103 206.1 428.383 206.1C425.663 206.1 423.556 206.82 422.063 208.26C420.569 209.7 419.823 211.78 419.823 214.5V240.02C419.823 242.74 420.569 244.847 422.063 246.34C423.556 247.78 425.663 248.5 428.383 248.5C431.103 248.5 433.183 247.78 434.623 246.34C436.116 244.847 436.863 242.74 436.863 240.02H446.943C446.943 243.487 446.169 246.527 444.623 249.14C443.076 251.753 440.916 253.78 438.143 255.22C435.423 256.607 432.169 257.3 428.383 257.3ZM458.191 256.5V198.1H468.191V221.54H483.871V198.1H493.871V256.5H483.871V230.82H468.191V256.5H458.191ZM555.249 256.5L549.249 198.1H557.889L561.409 238.9C561.515 239.807 561.595 240.927 561.649 242.26C561.755 243.54 561.835 244.847 561.889 246.18C561.995 247.513 562.049 248.687 562.049 249.7C562.155 248.687 562.262 247.513 562.369 246.18C562.475 244.847 562.582 243.54 562.689 242.26C562.849 240.927 562.982 239.807 563.089 238.9L567.889 198.1H576.289L580.769 238.9C580.929 239.807 581.062 240.927 581.169 242.26C581.329 243.54 581.489 244.847 581.649 246.18C581.809 247.513 581.942 248.687 582.049 249.7C582.102 248.687 582.155 247.513 582.209 246.18C582.262 244.847 582.315 243.54 582.369 242.26C582.475 240.927 582.582 239.807 582.689 238.9L586.129 198.1H594.689L588.369 256.5H577.329L573.009 215.54C572.902 214.527 572.769 213.353 572.609 212.02C572.502 210.633 572.395 209.273 572.289 207.94C572.182 206.553 572.102 205.38 572.049 204.42C571.995 205.38 571.889 206.553 571.729 207.94C571.622 209.273 571.515 210.633 571.409 212.02C571.302 213.353 571.195 214.527 571.089 215.54L566.369 256.5H555.249ZM602.978 256.5V198.1H638.018V206.82H612.818V222.02H635.218V230.66H612.818V247.78H638.018V256.5H602.978ZM650.946 256.5V198.1H685.986V206.82H660.786V222.02H683.186V230.66H660.786V247.78H685.986V256.5H650.946ZM697.955 256.5V198.1H707.955V221.7H714.915L725.875 198.1H736.755L723.715 226.1L737.395 256.5H726.275L714.755 230.82H707.955V256.5H697.955ZM794.133 256.5V246.82L812.373 228.5C814.933 225.887 816.826 223.54 818.053 221.46C819.279 219.327 819.893 217.14 819.893 214.9C819.893 212.18 819.146 210.073 817.653 208.58C816.159 207.033 814.133 206.26 811.573 206.26C808.746 206.26 806.533 207.087 804.933 208.74C803.333 210.34 802.533 212.58 802.533 215.46H792.533C792.586 211.727 793.386 208.527 794.933 205.86C796.533 203.14 798.773 201.033 801.653 199.54C804.533 198.047 807.893 197.3 811.733 197.3C815.413 197.3 818.613 197.993 821.333 199.38C824.053 200.767 826.159 202.713 827.653 205.22C829.146 207.727 829.893 210.713 829.893 214.18C829.893 217.753 828.959 221.247 827.093 224.66C825.279 228.02 822.346 231.647 818.293 235.54L806.133 247.46H830.613V256.5H794.133ZM859.781 257.3C855.995 257.3 852.715 256.58 849.941 255.14C847.168 253.7 845.008 251.673 843.461 249.06C841.968 246.447 841.221 243.38 841.221 239.86V214.74C841.221 211.22 841.968 208.153 843.461 205.54C845.008 202.927 847.168 200.9 849.941 199.46C852.715 198.02 855.995 197.3 859.781 197.3C863.621 197.3 866.901 198.02 869.621 199.46C872.395 200.9 874.528 202.927 876.021 205.54C877.568 208.153 878.341 211.22 878.341 214.74V239.86C878.341 243.38 877.568 246.447 876.021 249.06C874.528 251.673 872.395 253.7 869.621 255.14C866.848 256.58 863.568 257.3 859.781 257.3ZM859.781 248.66C862.555 248.66 864.768 247.86 866.421 246.26C868.075 244.66 868.901 242.527 868.901 239.86V214.74C868.901 212.073 868.075 209.94 866.421 208.34C864.768 206.74 862.555 205.94 859.781 205.94C857.008 205.94 854.795 206.74 853.141 208.34C851.488 209.94 850.661 212.073 850.661 214.74V239.86C850.661 242.527 851.488 244.66 853.141 246.26C854.795 247.86 857.008 248.66 859.781 248.66ZM859.781 232.5C858.235 232.5 856.955 231.993 855.941 230.98C854.981 229.967 854.501 228.66 854.501 227.06C854.501 225.46 854.981 224.18 855.941 223.22C856.901 222.26 858.181 221.78 859.781 221.78C861.381 221.78 862.661 222.26 863.621 223.22C864.581 224.18 865.061 225.46 865.061 227.06C865.061 228.66 864.581 229.967 863.621 230.98C862.661 231.993 861.381 232.5 859.781 232.5ZM890.07 256.5V246.82L908.31 228.5C910.87 225.887 912.763 223.54 913.99 221.46C915.217 219.327 915.83 217.14 915.83 214.9C915.83 212.18 915.083 210.073 913.59 208.58C912.097 207.033 910.07 206.26 907.51 206.26C904.683 206.26 902.47 207.087 900.87 208.74C899.27 210.34 898.47 212.58 898.47 215.46H888.47C888.523 211.727 889.323 208.527 890.87 205.86C892.47 203.14 894.71 201.033 897.59 199.54C900.47 198.047 903.83 197.3 907.67 197.3C911.35 197.3 914.55 197.993 917.27 199.38C919.99 200.767 922.097 202.713 923.59 205.22C925.083 207.727 925.83 210.713 925.83 214.18C925.83 217.753 924.897 221.247 923.03 224.66C921.217 228.02 918.283 231.647 914.23 235.54L902.07 247.46H926.55V256.5H890.07ZM955.639 257.3C950.252 257.3 945.932 255.967 942.679 253.3C939.425 250.58 937.639 246.9 937.319 242.26H947.319C947.532 244.287 948.332 245.86 949.719 246.98C951.159 248.047 953.132 248.58 955.639 248.58C958.412 248.58 960.519 247.86 961.959 246.42C963.399 244.927 964.119 242.873 964.119 240.26V234.58C964.119 231.913 963.399 229.887 961.959 228.5C960.519 227.06 958.412 226.34 955.639 226.34C953.932 226.34 952.465 226.687 951.239 227.38C950.012 228.073 949.079 229.033 948.439 230.26H938.679L939.079 198.1H971.959V207.14H948.519L948.359 224.1H950.679L948.279 226.1C948.279 223.647 949.239 221.727 951.159 220.34C953.132 218.9 955.772 218.18 959.079 218.18C963.825 218.127 967.505 219.567 970.119 222.5C972.785 225.38 974.119 229.407 974.119 234.58V240.26C974.119 245.54 972.465 249.7 969.159 252.74C965.905 255.78 961.399 257.3 955.639 257.3Z" fill="white"/>
</svg>
