<svg width="1200" height="630" viewBox="0 0 1200 630" fill="none" xmlns="http://www.w3.org/2000/svg">
<rect width="1200" height="630" fill="black"/>
<path d="M144.633 266.3C140.899 266.3 137.619 265.607 134.793 264.22C132.019 262.78 129.859 260.78 128.313 258.22C126.819 255.607 126.073 252.54 126.073 249.02V223.58C126.073 220.007 126.819 216.94 128.313 214.38C129.859 211.82 132.019 209.847 134.793 208.46C137.619 207.02 140.899 206.3 144.633 206.3C148.419 206.3 151.673 207.02 154.393 208.46C157.166 209.847 159.326 211.82 160.873 214.38C162.419 216.94 163.193 220.007 163.193 223.58H153.113C153.113 220.807 152.366 218.7 150.873 217.26C149.433 215.82 147.353 215.1 144.633 215.1C141.913 215.1 139.806 215.82 138.313 217.26C136.819 218.7 136.073 220.78 136.073 223.5V249.02C136.073 251.74 136.819 253.847 138.313 255.34C139.806 256.78 141.913 257.5 144.633 257.5C147.353 257.5 149.433 256.78 150.873 255.34C152.366 253.847 153.113 251.74 153.113 249.02H163.193C163.193 252.487 162.419 255.527 160.873 258.14C159.326 260.753 157.166 262.78 154.393 264.22C151.673 265.607 148.419 266.3 144.633 266.3ZM174.441 265.5V207.1H184.441V230.54H200.121V207.1H210.121V265.5H200.121V239.82H184.441V265.5H174.441ZM223.45 265.5V256.7H235.21V215.9H223.45V207.1H257.05V215.9H245.29V256.7H257.05V265.5H223.45ZM272.459 265.5V207.1H282.459V256.22H307.259V265.5H272.459ZM319.228 265.5V207.1H354.268V215.82H329.068V231.02H351.468V239.66H329.068V256.78H354.268V265.5H319.228ZM427.085 265.5V216.38H411.805V207.1H452.445V216.38H437.165V265.5H427.085ZM463.134 265.5V207.1H498.174V215.82H472.974V231.02H495.374V239.66H472.974V256.78H498.174V265.5H463.134ZM528.383 266.3C524.649 266.3 521.369 265.607 518.543 264.22C515.769 262.78 513.609 260.78 512.063 258.22C510.569 255.607 509.823 252.54 509.823 249.02V223.58C509.823 220.007 510.569 216.94 512.063 214.38C513.609 211.82 515.769 209.847 518.543 208.46C521.369 207.02 524.649 206.3 528.383 206.3C532.169 206.3 535.423 207.02 538.143 208.46C540.916 209.847 543.076 211.82 544.623 214.38C546.169 216.94 546.943 220.007 546.943 223.58H536.863C536.863 220.807 536.116 218.7 534.623 217.26C533.183 215.82 531.103 215.1 528.383 215.1C525.663 215.1 523.556 215.82 522.063 217.26C520.569 218.7 519.823 220.78 519.823 223.5V249.02C519.823 251.74 520.569 253.847 522.063 255.34C523.556 256.78 525.663 257.5 528.383 257.5C531.103 257.5 533.183 256.78 534.623 255.34C536.116 253.847 536.863 251.74 536.863 249.02H546.943C546.943 252.487 546.169 255.527 544.623 258.14C543.076 260.753 540.916 262.78 538.143 264.22C535.423 265.607 532.169 266.3 528.383 266.3ZM558.191 265.5V207.1H568.191V230.54H583.871V207.1H593.871V265.5H583.871V239.82H568.191V265.5H558.191ZM655.249 265.5L649.249 207.1H657.889L661.409 247.9C661.515 248.807 661.595 249.927 661.649 251.26C661.755 252.54 661.835 253.847 661.889 255.18C661.995 256.513 662.049 257.687 662.049 258.7C662.155 257.687 662.262 256.513 662.369 255.18C662.475 253.847 662.582 252.54 662.689 251.26C662.849 249.927 662.982 248.807 663.089 247.9L667.889 207.1H676.289L680.769 247.9C680.929 248.807 681.062 249.927 681.169 251.26C681.329 252.54 681.489 253.847 681.649 255.18C681.809 256.513 681.942 257.687 682.049 258.7C682.102 257.687 682.155 256.513 682.209 255.18C682.262 253.847 682.315 252.54 682.369 251.26C682.475 249.927 682.582 248.807 682.689 247.9L686.129 207.1H694.689L688.369 265.5H677.329L673.009 224.54C672.902 223.527 672.769 222.353 672.609 221.02C672.502 219.633 672.395 218.273 672.289 216.94C672.182 215.553 672.102 214.38 672.049 213.42C671.995 214.38 671.889 215.553 671.729 216.94C671.622 218.273 671.515 219.633 671.409 221.02C671.302 222.353 671.195 223.527 671.089 224.54L666.369 265.5H655.249ZM702.978 265.5V207.1H738.018V215.82H712.818V231.02H735.218V239.66H712.818V256.78H738.018V265.5H702.978ZM750.946 265.5V207.1H785.986V215.82H760.786V231.02H783.186V239.66H760.786V256.78H785.986V265.5H750.946ZM797.955 265.5V207.1H807.955V230.7H814.915L825.875 207.1H836.755L823.715 235.1L837.395 265.5H826.275L814.755 239.82H807.955V265.5H797.955ZM894.133 265.5V255.82L912.373 237.5C914.933 234.887 916.826 232.54 918.053 230.46C919.279 228.327 919.893 226.14 919.893 223.9C919.893 221.18 919.146 219.073 917.653 217.58C916.159 216.033 914.133 215.26 911.573 215.26C908.746 215.26 906.533 216.087 904.933 217.74C903.333 219.34 902.533 221.58 902.533 224.46H892.533C892.586 220.727 893.386 217.527 894.933 214.86C896.533 212.14 898.773 210.033 901.653 208.54C904.533 207.047 907.893 206.3 911.733 206.3C915.413 206.3 918.613 206.993 921.333 208.38C924.053 209.767 926.159 211.713 927.653 214.22C929.146 216.727 929.893 219.713 929.893 223.18C929.893 226.753 928.959 230.247 927.093 233.66C925.279 237.02 922.346 240.647 918.293 244.54L906.133 256.46H930.613V265.5H894.133ZM959.781 266.3C955.995 266.3 952.715 265.58 949.941 264.14C947.168 262.7 945.008 260.673 943.461 258.06C941.968 255.447 941.221 252.38 941.221 248.86V223.74C941.221 220.22 941.968 217.153 943.461 214.54C945.008 211.927 947.168 209.9 949.941 208.46C952.715 207.02 955.995 206.3 959.781 206.3C963.621 206.3 966.901 207.02 969.621 208.46C972.395 209.9 974.528 211.927 976.021 214.54C977.568 217.153 978.341 220.22 978.341 223.74V248.86C978.341 252.38 977.568 255.447 976.021 258.06C974.528 260.673 972.395 262.7 969.621 264.14C966.848 265.58 963.568 266.3 959.781 266.3ZM959.781 257.66C962.555 257.66 964.768 256.86 966.421 255.26C968.075 253.66 968.901 251.527 968.901 248.86V223.74C968.901 221.073 968.075 218.94 966.421 217.34C964.768 215.74 962.555 214.94 959.781 214.94C957.008 214.94 954.795 215.74 953.141 217.34C951.488 218.94 950.661 221.073 950.661 223.74V248.86C950.661 251.527 951.488 253.66 953.141 255.26C954.795 256.86 957.008 257.66 959.781 257.66ZM959.781 241.5C958.235 241.5 956.955 240.993 955.941 239.98C954.981 238.967 954.501 237.66 954.501 236.06C954.501 234.46 954.981 233.18 955.941 232.22C956.901 231.26 958.181 230.78 959.781 230.78C961.381 230.78 962.661 231.26 963.621 232.22C964.581 233.18 965.061 234.46 965.061 236.06C965.061 237.66 964.581 238.967 963.621 239.98C962.661 240.993 961.381 241.5 959.781 241.5ZM990.07 265.5V255.82L1008.31 237.5C1010.87 234.887 1012.76 232.54 1013.99 230.46C1015.22 228.327 1015.83 226.14 1015.83 223.9C1015.83 221.18 1015.08 219.073 1013.59 217.58C1012.1 216.033 1010.07 215.26 1007.51 215.26C1004.68 215.26 1002.47 216.087 1000.87 217.74C999.27 219.34 998.47 221.58 998.47 224.46H988.47C988.523 220.727 989.323 217.527 990.87 214.86C992.47 212.14 994.71 210.033 997.59 208.54C1000.47 207.047 1003.83 206.3 1007.67 206.3C1011.35 206.3 1014.55 206.993 1017.27 208.38C1019.99 209.767 1022.1 211.713 1023.59 214.22C1025.08 216.727 1025.83 219.713 1025.83 223.18C1025.83 226.753 1024.9 230.247 1023.03 233.66C1021.22 237.02 1018.28 240.647 1014.23 244.54L1002.07 256.46H1026.55V265.5H990.07ZM1055.64 266.3C1050.25 266.3 1045.93 264.967 1042.68 262.3C1039.43 259.58 1037.64 255.9 1037.32 251.26H1047.32C1047.53 253.287 1048.33 254.86 1049.72 255.98C1051.16 257.047 1053.13 257.58 1055.64 257.58C1058.41 257.58 1060.52 256.86 1061.96 255.42C1063.4 253.927 1064.12 251.873 1064.12 249.26V243.58C1064.12 240.913 1063.4 238.887 1061.96 237.5C1060.52 236.06 1058.41 235.34 1055.64 235.34C1053.93 235.34 1052.47 235.687 1051.24 236.38C1050.01 237.073 1049.08 238.033 1048.44 239.26H1038.68L1039.08 207.1H1071.96V216.14H1048.52L1048.36 233.1H1050.68L1048.28 235.1C1048.28 232.647 1049.24 230.727 1051.16 229.34C1053.13 227.9 1055.77 227.18 1059.08 227.18C1063.83 227.127 1067.51 228.567 1070.12 231.5C1072.79 234.38 1074.12 238.407 1074.12 243.58V249.26C1074.12 254.54 1072.47 258.7 1069.16 261.74C1065.91 264.78 1061.4 266.3 1055.64 266.3Z" fill="#EE2B2B"/>
<path d="M144.633 344.3C140.899 344.3 137.619 343.607 134.793 342.22C132.019 340.78 129.859 338.78 128.313 336.22C126.819 333.607 126.073 330.54 126.073 327.02V301.58C126.073 298.007 126.819 294.94 128.313 292.38C129.859 289.82 132.019 287.847 134.793 286.46C137.619 285.02 140.899 284.3 144.633 284.3C148.419 284.3 151.673 285.02 154.393 286.46C157.166 287.847 159.326 289.82 160.873 292.38C162.419 294.94 163.193 298.007 163.193 301.58H153.113C153.113 298.807 152.366 296.7 150.873 295.26C149.433 293.82 147.353 293.1 144.633 293.1C141.913 293.1 139.806 293.82 138.313 295.26C136.819 296.7 136.073 298.78 136.073 301.5V327.02C136.073 329.74 136.819 331.847 138.313 333.34C139.806 334.78 141.913 335.5 144.633 335.5C147.353 335.5 149.433 334.78 150.873 333.34C152.366 331.847 153.113 329.74 153.113 327.02H163.193C163.193 330.487 162.419 333.527 160.873 336.14C159.326 338.753 157.166 340.78 154.393 342.22C151.673 343.607 148.419 344.3 144.633 344.3ZM174.441 343.5V285.1H184.441V308.54H200.121V285.1H210.121V343.5H200.121V317.82H184.441V343.5H174.441ZM223.45 343.5V334.7H235.21V293.9H223.45V285.1H257.05V293.9H245.29V334.7H257.05V343.5H223.45ZM272.459 343.5V285.1H282.459V334.22H307.259V343.5H272.459ZM319.228 343.5V285.1H354.268V293.82H329.068V309.02H351.468V317.66H329.068V334.78H354.268V343.5H319.228ZM427.085 343.5V294.38H411.805V285.1H452.445V294.38H437.165V343.5H427.085ZM463.134 343.5V285.1H498.174V293.82H472.974V309.02H495.374V317.66H472.974V334.78H498.174V343.5H463.134ZM528.383 344.3C524.649 344.3 521.369 343.607 518.543 342.22C515.769 340.78 513.609 338.78 512.063 336.22C510.569 333.607 509.823 330.54 509.823 327.02V301.58C509.823 298.007 510.569 294.94 512.063 292.38C513.609 289.82 515.769 287.847 518.543 286.46C521.369 285.02 524.649 284.3 528.383 284.3C532.169 284.3 535.423 285.02 538.143 286.46C540.916 287.847 543.076 289.82 544.623 292.38C546.169 294.94 546.943 298.007 546.943 301.58H536.863C536.863 298.807 536.116 296.7 534.623 295.26C533.183 293.82 531.103 293.1 528.383 293.1C525.663 293.1 523.556 293.82 522.063 295.26C520.569 296.7 519.823 298.78 519.823 301.5V327.02C519.823 329.74 520.569 331.847 522.063 333.34C523.556 334.78 525.663 335.5 528.383 335.5C531.103 335.5 533.183 334.78 534.623 333.34C536.116 331.847 536.863 329.74 536.863 327.02H546.943C546.943 330.487 546.169 333.527 544.623 336.14C543.076 338.753 540.916 340.78 538.143 342.22C535.423 343.607 532.169 344.3 528.383 344.3ZM558.191 343.5V285.1H568.191V308.54H583.871V285.1H593.871V343.5H583.871V317.82H568.191V343.5H558.191ZM655.249 343.5L649.249 285.1H657.889L661.409 325.9C661.515 326.807 661.595 327.927 661.649 329.26C661.755 330.54 661.835 331.847 661.889 333.18C661.995 334.513 662.049 335.687 662.049 336.7C662.155 335.687 662.262 334.513 662.369 333.18C662.475 331.847 662.582 330.54 662.689 329.26C662.849 327.927 662.982 326.807 663.089 325.9L667.889 285.1H676.289L680.769 325.9C680.929 326.807 681.062 327.927 681.169 329.26C681.329 330.54 681.489 331.847 681.649 333.18C681.809 334.513 681.942 335.687 682.049 336.7C682.102 335.687 682.155 334.513 682.209 333.18C682.262 331.847 682.315 330.54 682.369 329.26C682.475 327.927 682.582 326.807 682.689 325.9L686.129 285.1H694.689L688.369 343.5H677.329L673.009 302.54C672.902 301.527 672.769 300.353 672.609 299.02C672.502 297.633 672.395 296.273 672.289 294.94C672.182 293.553 672.102 292.38 672.049 291.42C671.995 292.38 671.889 293.553 671.729 294.94C671.622 296.273 671.515 297.633 671.409 299.02C671.302 300.353 671.195 301.527 671.089 302.54L666.369 343.5H655.249ZM702.978 343.5V285.1H738.018V293.82H712.818V309.02H735.218V317.66H712.818V334.78H738.018V343.5H702.978ZM750.946 343.5V285.1H785.986V293.82H760.786V309.02H783.186V317.66H760.786V334.78H785.986V343.5H750.946ZM797.955 343.5V285.1H807.955V308.7H814.915L825.875 285.1H836.755L823.715 313.1L837.395 343.5H826.275L814.755 317.82H807.955V343.5H797.955ZM894.133 343.5V333.82L912.373 315.5C914.933 312.887 916.826 310.54 918.053 308.46C919.279 306.327 919.893 304.14 919.893 301.9C919.893 299.18 919.146 297.073 917.653 295.58C916.159 294.033 914.133 293.26 911.573 293.26C908.746 293.26 906.533 294.087 904.933 295.74C903.333 297.34 902.533 299.58 902.533 302.46H892.533C892.586 298.727 893.386 295.527 894.933 292.86C896.533 290.14 898.773 288.033 901.653 286.54C904.533 285.047 907.893 284.3 911.733 284.3C915.413 284.3 918.613 284.993 921.333 286.38C924.053 287.767 926.159 289.713 927.653 292.22C929.146 294.727 929.893 297.713 929.893 301.18C929.893 304.753 928.959 308.247 927.093 311.66C925.279 315.02 922.346 318.647 918.293 322.54L906.133 334.46H930.613V343.5H894.133ZM959.781 344.3C955.995 344.3 952.715 343.58 949.941 342.14C947.168 340.7 945.008 338.673 943.461 336.06C941.968 333.447 941.221 330.38 941.221 326.86V301.74C941.221 298.22 941.968 295.153 943.461 292.54C945.008 289.927 947.168 287.9 949.941 286.46C952.715 285.02 955.995 284.3 959.781 284.3C963.621 284.3 966.901 285.02 969.621 286.46C972.395 287.9 974.528 289.927 976.021 292.54C977.568 295.153 978.341 298.22 978.341 301.74V326.86C978.341 330.38 977.568 333.447 976.021 336.06C974.528 338.673 972.395 340.7 969.621 342.14C966.848 343.58 963.568 344.3 959.781 344.3ZM959.781 335.66C962.555 335.66 964.768 334.86 966.421 333.26C968.075 331.66 968.901 329.527 968.901 326.86V301.74C968.901 299.073 968.075 296.94 966.421 295.34C964.768 293.74 962.555 292.94 959.781 292.94C957.008 292.94 954.795 293.74 953.141 295.34C951.488 296.94 950.661 299.073 950.661 301.74V326.86C950.661 329.527 951.488 331.66 953.141 333.26C954.795 334.86 957.008 335.66 959.781 335.66ZM959.781 319.5C958.235 319.5 956.955 318.993 955.941 317.98C954.981 316.967 954.501 315.66 954.501 314.06C954.501 312.46 954.981 311.18 955.941 310.22C956.901 309.26 958.181 308.78 959.781 308.78C961.381 308.78 962.661 309.26 963.621 310.22C964.581 311.18 965.061 312.46 965.061 314.06C965.061 315.66 964.581 316.967 963.621 317.98C962.661 318.993 961.381 319.5 959.781 319.5ZM990.07 343.5V333.82L1008.31 315.5C1010.87 312.887 1012.76 310.54 1013.99 308.46C1015.22 306.327 1015.83 304.14 1015.83 301.9C1015.83 299.18 1015.08 297.073 1013.59 295.58C1012.1 294.033 1010.07 293.26 1007.51 293.26C1004.68 293.26 1002.47 294.087 1000.87 295.74C999.27 297.34 998.47 299.58 998.47 302.46H988.47C988.523 298.727 989.323 295.527 990.87 292.86C992.47 290.14 994.71 288.033 997.59 286.54C1000.47 285.047 1003.83 284.3 1007.67 284.3C1011.35 284.3 1014.55 284.993 1017.27 286.38C1019.99 287.767 1022.1 289.713 1023.59 292.22C1025.08 294.727 1025.83 297.713 1025.83 301.18C1025.83 304.753 1024.9 308.247 1023.03 311.66C1021.22 315.02 1018.28 318.647 1014.23 322.54L1002.07 334.46H1026.55V343.5H990.07ZM1055.64 344.3C1050.25 344.3 1045.93 342.967 1042.68 340.3C1039.43 337.58 1037.64 333.9 1037.32 329.26H1047.32C1047.53 331.287 1048.33 332.86 1049.72 333.98C1051.16 335.047 1053.13 335.58 1055.64 335.58C1058.41 335.58 1060.52 334.86 1061.96 333.42C1063.4 331.927 1064.12 329.873 1064.12 327.26V321.58C1064.12 318.913 1063.4 316.887 1061.96 315.5C1060.52 314.06 1058.41 313.34 1055.64 313.34C1053.93 313.34 1052.47 313.687 1051.24 314.38C1050.01 315.073 1049.08 316.033 1048.44 317.26H1038.68L1039.08 285.1H1071.96V294.14H1048.52L1048.36 311.1H1050.68L1048.28 313.1C1048.28 310.647 1049.24 308.727 1051.16 307.34C1053.13 305.9 1055.77 305.18 1059.08 305.18C1063.83 305.127 1067.51 306.567 1070.12 309.5C1072.79 312.38 1074.12 316.407 1074.12 321.58V327.26C1074.12 332.54 1072.47 336.7 1069.16 339.74C1065.91 342.78 1061.4 344.3 1055.64 344.3Z" fill="#F68B8B"/>
<path d="M144.633 422.3C140.899 422.3 137.619 421.607 134.793 420.22C132.019 418.78 129.859 416.78 128.313 414.22C126.819 411.607 126.073 408.54 126.073 405.02V379.58C126.073 376.007 126.819 372.94 128.313 370.38C129.859 367.82 132.019 365.847 134.793 364.46C137.619 363.02 140.899 362.3 144.633 362.3C148.419 362.3 151.673 363.02 154.393 364.46C157.166 365.847 159.326 367.82 160.873 370.38C162.419 372.94 163.193 376.007 163.193 379.58H153.113C153.113 376.807 152.366 374.7 150.873 373.26C149.433 371.82 147.353 371.1 144.633 371.1C141.913 371.1 139.806 371.82 138.313 373.26C136.819 374.7 136.073 376.78 136.073 379.5V405.02C136.073 407.74 136.819 409.847 138.313 411.34C139.806 412.78 141.913 413.5 144.633 413.5C147.353 413.5 149.433 412.78 150.873 411.34C152.366 409.847 153.113 407.74 153.113 405.02H163.193C163.193 408.487 162.419 411.527 160.873 414.14C159.326 416.753 157.166 418.78 154.393 420.22C151.673 421.607 148.419 422.3 144.633 422.3ZM174.441 421.5V363.1H184.441V386.54H200.121V363.1H210.121V421.5H200.121V395.82H184.441V421.5H174.441ZM223.45 421.5V412.7H235.21V371.9H223.45V363.1H257.05V371.9H245.29V412.7H257.05V421.5H223.45ZM272.459 421.5V363.1H282.459V412.22H307.259V421.5H272.459ZM319.228 421.5V363.1H354.268V371.82H329.068V387.02H351.468V395.66H329.068V412.78H354.268V421.5H319.228ZM427.085 421.5V372.38H411.805V363.1H452.445V372.38H437.165V421.5H427.085ZM463.134 421.5V363.1H498.174V371.82H472.974V387.02H495.374V395.66H472.974V412.78H498.174V421.5H463.134ZM528.383 422.3C524.649 422.3 521.369 421.607 518.543 420.22C515.769 418.78 513.609 416.78 512.063 414.22C510.569 411.607 509.823 408.54 509.823 405.02V379.58C509.823 376.007 510.569 372.94 512.063 370.38C513.609 367.82 515.769 365.847 518.543 364.46C521.369 363.02 524.649 362.3 528.383 362.3C532.169 362.3 535.423 363.02 538.143 364.46C540.916 365.847 543.076 367.82 544.623 370.38C546.169 372.94 546.943 376.007 546.943 379.58H536.863C536.863 376.807 536.116 374.7 534.623 373.26C533.183 371.82 531.103 371.1 528.383 371.1C525.663 371.1 523.556 371.82 522.063 373.26C520.569 374.7 519.823 376.78 519.823 379.5V405.02C519.823 407.74 520.569 409.847 522.063 411.34C523.556 412.78 525.663 413.5 528.383 413.5C531.103 413.5 533.183 412.78 534.623 411.34C536.116 409.847 536.863 407.74 536.863 405.02H546.943C546.943 408.487 546.169 411.527 544.623 414.14C543.076 416.753 540.916 418.78 538.143 420.22C535.423 421.607 532.169 422.3 528.383 422.3ZM558.191 421.5V363.1H568.191V386.54H583.871V363.1H593.871V421.5H583.871V395.82H568.191V421.5H558.191ZM655.249 421.5L649.249 363.1H657.889L661.409 403.9C661.515 404.807 661.595 405.927 661.649 407.26C661.755 408.54 661.835 409.847 661.889 411.18C661.995 412.513 662.049 413.687 662.049 414.7C662.155 413.687 662.262 412.513 662.369 411.18C662.475 409.847 662.582 408.54 662.689 407.26C662.849 405.927 662.982 404.807 663.089 403.9L667.889 363.1H676.289L680.769 403.9C680.929 404.807 681.062 405.927 681.169 407.26C681.329 408.54 681.489 409.847 681.649 411.18C681.809 412.513 681.942 413.687 682.049 414.7C682.102 413.687 682.155 412.513 682.209 411.18C682.262 409.847 682.315 408.54 682.369 407.26C682.475 405.927 682.582 404.807 682.689 403.9L686.129 363.1H694.689L688.369 421.5H677.329L673.009 380.54C672.902 379.527 672.769 378.353 672.609 377.02C672.502 375.633 672.395 374.273 672.289 372.94C672.182 371.553 672.102 370.38 672.049 369.42C671.995 370.38 671.889 371.553 671.729 372.94C671.622 374.273 671.515 375.633 671.409 377.02C671.302 378.353 671.195 379.527 671.089 380.54L666.369 421.5H655.249ZM702.978 421.5V363.1H738.018V371.82H712.818V387.02H735.218V395.66H712.818V412.78H738.018V421.5H702.978ZM750.946 421.5V363.1H785.986V371.82H760.786V387.02H783.186V395.66H760.786V412.78H785.986V421.5H750.946ZM797.955 421.5V363.1H807.955V386.7H814.915L825.875 363.1H836.755L823.715 391.1L837.395 421.5H826.275L814.755 395.82H807.955V421.5H797.955ZM894.133 421.5V411.82L912.373 393.5C914.933 390.887 916.826 388.54 918.053 386.46C919.279 384.327 919.893 382.14 919.893 379.9C919.893 377.18 919.146 375.073 917.653 373.58C916.159 372.033 914.133 371.26 911.573 371.26C908.746 371.26 906.533 372.087 904.933 373.74C903.333 375.34 902.533 377.58 902.533 380.46H892.533C892.586 376.727 893.386 373.527 894.933 370.86C896.533 368.14 898.773 366.033 901.653 364.54C904.533 363.047 907.893 362.3 911.733 362.3C915.413 362.3 918.613 362.993 921.333 364.38C924.053 365.767 926.159 367.713 927.653 370.22C929.146 372.727 929.893 375.713 929.893 379.18C929.893 382.753 928.959 386.247 927.093 389.66C925.279 393.02 922.346 396.647 918.293 400.54L906.133 412.46H930.613V421.5H894.133ZM959.781 422.3C955.995 422.3 952.715 421.58 949.941 420.14C947.168 418.7 945.008 416.673 943.461 414.06C941.968 411.447 941.221 408.38 941.221 404.86V379.74C941.221 376.22 941.968 373.153 943.461 370.54C945.008 367.927 947.168 365.9 949.941 364.46C952.715 363.02 955.995 362.3 959.781 362.3C963.621 362.3 966.901 363.02 969.621 364.46C972.395 365.9 974.528 367.927 976.021 370.54C977.568 373.153 978.341 376.22 978.341 379.74V404.86C978.341 408.38 977.568 411.447 976.021 414.06C974.528 416.673 972.395 418.7 969.621 420.14C966.848 421.58 963.568 422.3 959.781 422.3ZM959.781 413.66C962.555 413.66 964.768 412.86 966.421 411.26C968.075 409.66 968.901 407.527 968.901 404.86V379.74C968.901 377.073 968.075 374.94 966.421 373.34C964.768 371.74 962.555 370.94 959.781 370.94C957.008 370.94 954.795 371.74 953.141 373.34C951.488 374.94 950.661 377.073 950.661 379.74V404.86C950.661 407.527 951.488 409.66 953.141 411.26C954.795 412.86 957.008 413.66 959.781 413.66ZM959.781 397.5C958.235 397.5 956.955 396.993 955.941 395.98C954.981 394.967 954.501 393.66 954.501 392.06C954.501 390.46 954.981 389.18 955.941 388.22C956.901 387.26 958.181 386.78 959.781 386.78C961.381 386.78 962.661 387.26 963.621 388.22C964.581 389.18 965.061 390.46 965.061 392.06C965.061 393.66 964.581 394.967 963.621 395.98C962.661 396.993 961.381 397.5 959.781 397.5ZM990.07 421.5V411.82L1008.31 393.5C1010.87 390.887 1012.76 388.54 1013.99 386.46C1015.22 384.327 1015.83 382.14 1015.83 379.9C1015.83 377.18 1015.08 375.073 1013.59 373.58C1012.1 372.033 1010.07 371.26 1007.51 371.26C1004.68 371.26 1002.47 372.087 1000.87 373.74C999.27 375.34 998.47 377.58 998.47 380.46H988.47C988.523 376.727 989.323 373.527 990.87 370.86C992.47 368.14 994.71 366.033 997.59 364.54C1000.47 363.047 1003.83 362.3 1007.67 362.3C1011.35 362.3 1014.55 362.993 1017.27 364.38C1019.99 365.767 1022.1 367.713 1023.59 370.22C1025.08 372.727 1025.83 375.713 1025.83 379.18C1025.83 382.753 1024.9 386.247 1023.03 389.66C1021.22 393.02 1018.28 396.647 1014.23 400.54L1002.07 412.46H1026.55V421.5H990.07ZM1055.64 422.3C1050.25 422.3 1045.93 420.967 1042.68 418.3C1039.43 415.58 1037.64 411.9 1037.32 407.26H1047.32C1047.53 409.287 1048.33 410.86 1049.72 411.98C1051.16 413.047 1053.13 413.58 1055.64 413.58C1058.41 413.58 1060.52 412.86 1061.96 411.42C1063.4 409.927 1064.12 407.873 1064.12 405.26V399.58C1064.12 396.913 1063.4 394.887 1061.96 393.5C1060.52 392.06 1058.41 391.34 1055.64 391.34C1053.93 391.34 1052.47 391.687 1051.24 392.38C1050.01 393.073 1049.08 394.033 1048.44 395.26H1038.68L1039.08 363.1H1071.96V372.14H1048.52L1048.36 389.1H1050.68L1048.28 391.1C1048.28 388.647 1049.24 386.727 1051.16 385.34C1053.13 383.9 1055.77 383.18 1059.08 383.18C1063.83 383.127 1067.51 384.567 1070.12 387.5C1072.79 390.38 1074.12 394.407 1074.12 399.58V405.26C1074.12 410.54 1072.47 414.7 1069.16 417.74C1065.91 420.78 1061.4 422.3 1055.64 422.3Z" fill="white"/>
</svg>
